<svg width="65" height="65" viewBox="0 0 65 65" fill="none" xmlns="http://www.w3.org/2000/svg">
<g clip-path="url(#clip0_5_92)">
<path d="M21.6667 27.0833C21.6667 25.6467 22.2374 24.269 23.2533 23.2531C24.2691 22.2373 25.6468 21.6666 27.0834 21.6666H48.7501C50.1867 21.6666 51.5644 22.2373 52.5802 23.2531C53.5961 24.269 54.1667 25.6467 54.1667 27.0833V48.75C54.1667 50.1865 53.5961 51.5643 52.5802 52.5801C51.5644 53.5959 50.1867 54.1666 48.7501 54.1666H27.0834C25.6468 54.1666 24.2691 53.5959 23.2533 52.5801C22.2374 51.5643 21.6667 50.1865 21.6667 48.75V27.0833Z" stroke="#2C3E50" stroke-width="0.916667" stroke-linecap="round" stroke-linejoin="round"/>
<path d="M43.3333 21.6667V16.25C43.3333 14.8135 42.7626 13.4357 41.7467 12.4199C40.7309 11.4041 39.3532 10.8334 37.9166 10.8334H16.2499C14.8133 10.8334 13.4356 11.4041 12.4198 12.4199C11.4039 13.4357 10.8333 14.8135 10.8333 16.25V37.9167C10.8333 39.3533 11.4039 40.731 12.4198 41.7469C13.4356 42.7627 14.8133 43.3334 16.2499 43.3334H21.6666" stroke="#2C3E50" stroke-width="0.916667" stroke-linecap="round" stroke-linejoin="round"/>
</g>
<defs>
<clipPath id="clip0_5_92">
<rect width="65" height="65" fill="white"/>
</clipPath>
</defs>
</svg>
