<svg width="101" height="101" viewBox="0 0 101 101" fill="none" xmlns="http://www.w3.org/2000/svg">
<g clip-path="url(#clip0_5_75)">
<path d="M48.3201 88.0552C47.1151 87.7006 46.0275 87.0289 45.1709 86.1102C44.3144 85.1914 43.7204 84.0595 43.451 82.8326C43.1821 81.7225 42.6547 80.6915 41.912 79.8237C41.1693 78.9558 40.2321 78.2756 39.1768 77.8384C38.1215 77.4012 36.9779 77.2193 35.8391 77.3076C34.7002 77.3959 33.5983 77.7519 32.623 78.3465C26.1295 82.3024 18.6934 74.8705 22.6493 68.3728C23.2431 67.3979 23.5984 66.2967 23.6865 65.1586C23.7746 64.0205 23.5929 62.8777 23.1562 61.823C22.7195 60.7684 22.0401 59.8317 21.1733 59.089C20.3064 58.3463 19.2765 57.8187 18.1674 57.549C10.7775 55.7562 10.7775 45.2438 18.1674 43.451C19.2775 43.1821 20.3085 42.6547 21.1763 41.912C22.0442 41.1693 22.7244 40.2321 23.1616 39.1768C23.5988 38.1215 23.7807 36.9779 23.6924 35.8391C23.6041 34.7002 23.2481 33.5983 22.6535 32.623C18.6976 26.1295 26.1295 18.6934 32.6272 22.6493C36.8355 25.2079 42.2895 22.9438 43.451 18.1674C45.2438 10.7775 55.7562 10.7775 57.549 18.1674C57.8179 19.2775 58.3453 20.3085 59.088 21.1763C59.8307 22.0442 60.7679 22.7244 61.8232 23.1616C62.8785 23.5988 64.0221 23.7807 65.1609 23.6924C66.2998 23.6041 67.4017 23.2481 68.377 22.6535C74.8705 18.6976 82.3066 26.1295 78.3508 32.6272C77.757 33.6021 77.4016 34.7033 77.3135 35.8414C77.2254 36.9795 77.4071 38.1223 77.8438 39.177C78.2805 40.2316 78.9599 41.1683 79.8267 41.911C80.6936 42.6537 81.7235 43.1813 82.8326 43.451C88.354 44.7893 89.7511 51.0008 87.0199 54.8009" stroke="#2C3E50" stroke-width="0.916667" stroke-linecap="round" stroke-linejoin="round"/>
<path d="M37.875 50.5C37.875 53.8484 39.2051 57.0596 41.5728 59.4272C43.9404 61.7949 47.1516 63.125 50.5 63.125C53.8484 63.125 57.0596 61.7949 59.4272 59.4272C61.7949 57.0596 63.125 53.8484 63.125 50.5C63.125 47.1516 61.7949 43.9404 59.4272 41.5728C57.0596 39.2051 53.8484 37.875 50.5 37.875C47.1516 37.875 43.9404 39.2051 41.5728 41.5728C39.2051 43.9404 37.875 47.1516 37.875 50.5Z" stroke="#2C3E50" stroke-width="0.916667" stroke-linecap="round" stroke-linejoin="round"/>
<path d="M84.1667 88.375L92.5834 79.9583L84.1667 71.5416" stroke="#2C3E50" stroke-width="0.916667" stroke-linecap="round" stroke-linejoin="round"/>
<path d="M71.5417 71.5416L63.125 79.9583L71.5417 88.375" stroke="#2C3E50" stroke-width="0.916667" stroke-linecap="round" stroke-linejoin="round"/>
</g>
<defs>
<clipPath id="clip0_5_75">
<rect width="101" height="101" fill="white"/>
</clipPath>
</defs>
</svg>
