<svg width="95" height="95" viewBox="0 0 95 95" fill="none" xmlns="http://www.w3.org/2000/svg">
<g clip-path="url(#clip0_5_81)">
<path d="M47.5 11.8751C48.0225 11.8751 48.541 11.8751 49.0556 11.8751C43.9705 16.6001 40.7019 22.9578 39.818 29.8428C38.9341 36.7278 40.4908 43.7049 44.2174 49.5613C47.9441 55.4176 53.6052 59.7829 60.2165 61.8984C66.8278 64.0138 73.9715 63.7456 80.4056 61.1405C77.9306 67.0957 73.8854 72.2675 68.7015 76.104C63.5177 79.9405 57.3896 82.2979 50.971 82.9247C44.5525 83.5515 38.0841 82.4242 32.256 79.6631C26.4278 76.9019 21.4585 72.6105 17.8781 67.2466C14.2977 61.8827 12.2405 55.6474 11.926 49.206C11.6114 42.7645 13.0513 36.3585 16.092 30.6712C19.1328 24.984 23.6603 20.2288 29.1917 16.913C34.7231 13.5971 41.0508 11.8449 47.5 11.8434V11.8751Z" stroke="#2C3E50" stroke-width="0.916667" stroke-linecap="round" stroke-linejoin="round"/>
<path d="M67.2917 15.8334C67.2917 17.933 68.1257 19.9466 69.6104 21.4313C71.0951 22.916 73.1087 23.75 75.2083 23.75C73.1087 23.75 71.0951 24.5841 69.6104 26.0688C68.1257 27.5534 67.2917 29.5671 67.2917 31.6667C67.2917 29.5671 66.4576 27.5534 64.9729 26.0688C63.4883 24.5841 61.4746 23.75 59.375 23.75C61.4746 23.75 63.4883 22.916 64.9729 21.4313C66.4576 19.9466 67.2917 17.933 67.2917 15.8334Z" stroke="#2C3E50" stroke-width="0.916667" stroke-linecap="round" stroke-linejoin="round"/>
<path d="M75.2083 43.5417H83.1249M79.1666 39.5834V47.5" stroke="#2C3E50" stroke-width="0.916667" stroke-linecap="round" stroke-linejoin="round"/>
</g>
<defs>
<clipPath id="clip0_5_81">
<rect width="95" height="95" fill="white"/>
</clipPath>
</defs>
</svg>
