<svg width="182" height="182" viewBox="0 0 182 182" fill="none" xmlns="http://www.w3.org/2000/svg">
<g clip-path="url(#clip0_21_2)">
<path d="M78.2979 32.7373C81.5284 19.4209 100.472 19.4209 103.702 32.7373C104.187 34.7377 105.137 36.5955 106.475 38.1593C107.814 39.7232 109.502 40.9489 111.404 41.7367C113.306 42.5246 115.367 42.8523 117.419 42.6932C119.471 42.5341 121.457 41.8926 123.214 40.8211C134.915 33.6927 148.315 47.0849 141.187 58.7936C140.116 60.5503 139.476 62.5347 139.317 64.5855C139.159 66.6363 139.486 68.6957 140.273 70.5961C141.06 72.4966 142.284 74.1846 143.846 75.5228C145.408 76.8611 147.264 77.8119 149.263 78.2979C162.579 81.5284 162.579 100.472 149.263 103.702C147.262 104.187 145.405 105.137 143.841 106.475C142.277 107.814 141.051 109.502 140.263 111.404C139.475 113.306 139.148 115.367 139.307 117.419C139.466 119.471 140.107 121.457 141.179 123.214C148.307 134.915 134.915 148.315 123.206 141.187C121.45 140.116 119.465 139.476 117.414 139.317C115.364 139.159 113.304 139.486 111.404 140.273C109.503 141.06 107.815 142.284 106.477 143.846C105.139 145.408 104.188 147.264 103.702 149.263C100.472 162.579 81.5284 162.579 78.2979 149.263C77.8132 147.262 76.863 145.405 75.5246 143.841C74.1862 142.277 72.4975 141.051 70.5959 140.263C68.6943 139.475 66.6335 139.148 64.5813 139.307C62.5291 139.466 60.5435 140.107 58.786 141.179C47.0849 148.307 33.6852 134.915 40.8135 123.206C41.8835 121.45 42.5239 119.465 42.6827 117.414C42.8414 115.364 42.514 113.304 41.7271 111.404C40.9401 109.503 39.7159 107.815 38.1538 106.477C36.5917 105.139 34.7359 104.188 32.7373 103.702C19.4209 100.472 19.4209 81.5284 32.7373 78.2979C34.7377 77.8132 36.5955 76.863 38.1593 75.5246C39.7232 74.1862 40.9489 72.4975 41.7367 70.5959C42.5246 68.6943 42.8523 66.6335 42.6932 64.5813C42.5341 62.5291 41.8926 60.5435 40.8211 58.786C33.6927 47.0849 47.0849 33.6852 58.7936 40.8135C66.3769 45.4242 76.2049 41.3443 78.2979 32.7373Z" stroke="#2C3E50" stroke-width="2.75" stroke-linecap="round" stroke-linejoin="round"/>
<path d="M68.25 91C68.25 97.0337 70.6469 102.82 74.9133 107.087C79.1798 111.353 84.9663 113.75 91 113.75C97.0337 113.75 102.82 111.353 107.087 107.087C111.353 102.82 113.75 97.0337 113.75 91C113.75 84.9663 111.353 79.1798 107.087 74.9133C102.82 70.6469 97.0337 68.25 91 68.25C84.9663 68.25 79.1798 70.6469 74.9133 74.9133C70.6469 79.1798 68.25 84.9663 68.25 91Z" stroke="#2C3E50" stroke-width="2.75" stroke-linecap="round" stroke-linejoin="round"/>
</g>
<defs>
<clipPath id="clip0_21_2">
<rect width="182" height="182" fill="white"/>
</clipPath>
</defs>
</svg>
